<svg class="map" xmlns:dc="http://purl.org/dc/elements/1.1/" xmlns:cc="http://creativecommons.org/ns#" xmlns:rdf="http://www.w3.org/1999/02/22-rdf-syntax-ns#" xmlns:svg="http://www.w3.org/2000/svg" xmlns="http://www.w3.org/2000/svg" xmlns:sodipodi="http://sodipodi.sourceforge.net/DTD/sodipodi-0.dtd" xmlns:inkscape="http://www.inkscape.org/namespaces/inkscape" version="1.1" 
 viewBox="0 0 688 1016" id="svg614" sodipodi:docname="stat-map-2018.svg" inkscape:version="0.92.3 (2405546, 2018-03-11)">
  <metadata id="metadata620">
    <rdf:RDF>
      <cc:Work rdf:about="">
        <dc:format>image/svg+xml</dc:format>
        <dc:type rdf:resource="http://purl.org/dc/dcmitype/StillImage"/>
      </cc:Work>
    </rdf:RDF>
  </metadata>
  <defs id="defs618"/>
  <sodipodi:namedview pagecolor="#ffffff" bordercolor="#666666" borderopacity="1" objecttolerance="10" gridtolerance="10" guidetolerance="10" inkscape:pageopacity="0" inkscape:pageshadow="2" inkscape:window-width="1469" inkscape:window-height="1082" id="namedview616" showgrid="false" inkscape:zoom="1.8582677" inkscape:cx="451.62712" inkscape:cy="99.016949" inkscape:window-x="59" inkscape:window-y="27" inkscape:window-maximized="0" inkscape:current-layer="svg614"/>
  <g id="g192">
    <path d="m61.855 930.38-28.373 3.2272 14.791 6.4544-0.26894 28.104 12.774 5.1098 30.121-9.9506 10.757 2.4204 4.4374 15.867 10.892-16.943 19.632-4.8408-0.26893 21.784 15.598 33.348 7.6647-5.7821 13.85-2.017 57.149-35.903-54.459-21.38-6.4544-14.254 4.7064-9.8161 18.153-12.774 12.774-24.877 9.8162-12.64 2.6894-22.591 8.2025-12.371-0.94128-20.036-0.67233-0.94128 3.0928-17.346 21.111-16.002 6.1855 12.505-1.8825 12.102 29.583 5.9166 27.162-11.161-2.1515-13.178 9.1438 0.80681-0.13447-61.452 0.94128-1.6136 33.348-4.034 13.85 4.303 7.9336-6.051 16.136 12.371-6.8578 49.35 45.719-19.229 2.017-30.39 77.588 44.374 0.67234-23.935 15.867-15.329 0.26893-30.659 11.295-1.4791-1.7481-17.346-10.757-5.1098 10.22-11.968 12.64 1.6136 17.077 8.7404-0.13447-21.515-6.9923-10.354 14.523-14.254 6.9923-36.306-32.676-15.598-10.623 6.1855-6.8578-22.322 1.0757-0.53787 9.8161-34.155 19.901-30.659 6.9923 1.0757 1.3447-5.9166 6.7234-0.4034 38.996-15.329 52.173 0.40341-23.532-29.448 0.67234-11.295 11.43 4.5719 18.96-0.94128 0.26893-25.011 8.337-6.32-1.4791-15.733 4.303-1.8825-2.017-68.041-18.96-5.9166-18.691 6.051-5.1098 6.5889-19.094-6.051-18.288 12.64-11.564-0.67233-16.002-11.968-12.371 7.9336-26.759 6.9923-7.3957-5.3787-11.026-0.94128-12.506-9.6817-21.38 8.2025-18.557-2.1515-16.943 11.43-16.271 4.7064-1.8826-6.5889-9.9506-2.286 4.7064-68.847-10.757-33.482-16.674-23.263-11.833-3.7651-0.13447-1.3447 2.6894-19.229 12.505-15.06-1.7481-12.505-45.047-14.388-6.5889-46.122-16.943 11.026 0.94128-24.742-36.306-9.1438-5.2442-17.615-81.891 46.391-1.8825-2.1515-3.6306 0.26894 0.4034-11.026l12.371-15.195-2.5549-38.054-33.617-1.6136-20.842-38.727-9.4127-5.9166-25.28 11.295 2.6894 14.523-11.026-1.4791-42.492 53.249 6.8579 20.439 28.776 11.026 39.13 5.1098 37.785-3.7651-9.8162 13.043 3.8996 63.469-10.757 25.145-1.4791 7.2612-17.615 6.5889-3.8996 11.968-7.6647 5.1098-10.488-7.2613-16.808-27.566-11.968-45.585-6.4544 1.2102 0.53787 20.17-13.312 2.6894 3.8996 10.488-7.1268 22.86 6.32 5.6476-3.6306 9.1438 0.13447 30.255 3.3617 9.2783 2.286 7.9336-8.4715 8.6059 7.6647 7.6647-20.036 5.9166 1.0757 5.3787-8.4715 2.286-12.505-18.019-20.439 11.43-7.3957-5.2442-10.354 8.2025-2.8238 34.155 20.439 39.534 6.5889 6.051-9.0093 8.6059-18.422 3.4962 1.0757 19.229 9.5472 13.85 5.1098-1.0758 10.22 10.892 11.968-1.0757 0.26894 13.581 4.9753 1.7481-3.3617 8.2025-11.43 11.43 21.246 5.3787-3.6306 12.371 1.2102 0.53787-12.64 8.0681 1.2102 22.591-6.7234-1.7481 6.7234 11.699 6.8579 6.051 16.405-0.13447 3.3617-5.3787 6.051 0.40341v12.505l8.4715 1.2102 8.0681 19.632 9.1438-7.3957 43.433 2.1515 14.523-4.9753 10.354 13.85 6.051-2.6894-2.286 11.295-13.447 21.649-7.2613 30.793-3.8996 33.886 19.094-4.7064-0.26893 14.254 9.6817 3.0928 2.8238 27.835 8.4715-3.3617 3.6306 11.43-6.1855 7.2612 6.7234 3.6306 2.4204-1.3447 1.3447 10.623-8.0681 2.286 2.1515 5.2442-7.5302 4.303 2.6894 4.034-9.5472 2.4204 0.13447 5.9166-18.96 6.5889 15.195 4.7064 6.32 24.473 20.842 6.32 11.43-2.9583 9.1438 9.9506 5.9166-6.8578 3.0928 3.2272-3.7651 7.5302-2.9583 27.969-10.892-5.3787-6.8578 6.32-7.7991-2.286 1.6136 11.833-21.38 9.8161-6.8578 0.94127 0.26894 9.4127-8.337 1.4792-5.1098-2.286-4.8408 3.2272-1.2102-6.9923-9.5472 11.699-2.017 17.481-16.136 24.339-32.541 6.8578-18.153-11.564z" fill-opacity="0" stroke="#959595" stroke-width="3" id="path2"/>

  </g>
  <g id="g208">
    <path d="m62.393 1.0757 21.515 11.833 38.727 7.5302 20.439-13.985 19.363 22.591 9.6817 16.136 38.727 5.3787-1.0757 34.424-10.757 20.439 12.909 30.121 21.515 20.439 26.894 7.5302 3.2272 34.424 4.303 15.06-9.6817 41.954 1.0757 20.439 26.894 9.6817 13.985 17.212 2.1515 17.212-19.363 17.212-4.1366 7.8871-2.282 14.833-4.9443 7.6066-6.4656 6.0853-15.594 8.7476-19.397 20.538-7.987 17.115-4.9443 12.171 10.269 20.918 8.3673 4.1837 14.833-2.282 7.987 6.4656-1.5213 10.269-7.2263 14.453-2.6623 9.8886-10.649 7.987-7.6066 9.5083-2.282 15.213 2.282 15.594 6.0853 9.8886 3.8033 13.312 0.38033 9.5083 6.846 16.354 21.299 15.974 6.846 7.6066 4.1836 11.79-0.38033 21.299-5.705 18.636-2.282 23.2-4.9443 28.525-4.564 30.427-6.0853 16.354-20.918 14.072-8.7476 20.538-1.9017 19.017 1.141 18.256-8.7476 16.354-2.282 20.158-11.03 14.833-9.8886 17.876-14.072 11.03-8.3673 6.0853 1.5213 12.171 7.987 12.551 39.555 15.213 13.692 5.3246 9.128 12.931 11.41 24.341 12.551 20.538" fill="none" stroke="#147aff" stroke-width="2" id="path194"/>

  </g>
  <g fill="none" opacity=".549" stroke="#000" stroke-width="1px" id="g348">
    <path d="m230.48 971.38-57.43 35.751-13.312 2.282-7.6066 5.705-15.594-33.85v-21.299l-19.397 4.564-11.03 17.115-4.564-15.974-10.649-2.282-30.046 9.8886-12.931-5.3246v-28.145l-14.072-6.0853 28.145-3.423 3.8033-12.931 18.636 11.79 32.328-6.846 15.974-24.341 2.282-17.876 9.5083-11.03 1.141 7.2263 21.299 26.623-0.38034 12.931 7.6066 10.269-4.1837 9.8886 6.4656 14.072 17.876 7.2263z" id="path210"/>
    <path d="m174.57 925.74 17.876-12.931 12.551-23.961 9.8886-12.931 3.0426-22.82 7.987-12.171-1.141-20.538-6.0853-2.282-2.6623 24.722-11.03-5.3246-6.846 6.0853-7.987-2.282 1.9017 11.79-21.679 9.8886-6.4656 1.141v9.5083l-7.987 1.141-5.3246-2.282-5.3246 3.423" id="path212"/>
    <path d="m224.4 820.01 3.8033-21.679 8.7476-17.495 19.017-13.312 5.705-11.79-19.397-13.312h-15.974l2.6623-12.171-14.072 6.846-8.7476 7.987-3.0427 17.876 6.0853 2.282-0.76067 7.6066 5.3246 2.282 2.282 4.1836-3.8033 3.0426 3.423 11.41-11.79 7.6066 9.8886 9.5083 5.705-6.846 3.0427 3.0427-3.423 7.6066-0.38033 3.423" id="path214"/>
    <path d="m227.44 802.51c1.5213-0.38033 21.299-16.354 21.299-16.354l5.705 12.171-1.5213 12.171 29.666 6.0853 27.004-11.03-1.9017-12.931 9.128 0.76066-0.38033-61.614-7.987 5.705-4.9443-3.423-4.564 8.7476-7.6066-2.282-6.846-7.2263-21.679 5.3246-2.6623 15.974" id="path216"/>
    <path d="m214.51 736.72 5.705-11.79-13.692-6.0853-1.141-2.6623-8.3673 4.1836-8.7476 6.4656 1.5213 10.649-7.987 2.282 1.9017 5.3246-7.6066 4.1836 3.0426 4.1837-9.5083 2.282v6.0853l-18.636 6.4656 14.833 4.9443 6.0853 24.341 21.299 6.0853 10.269-2.6623" id="path218"/>
    <path d="m166.74 582.51-13.447 20.977-7.5302 31.196-3.7651 33.886 18.825-4.303v13.985l9.6817 3.2272 2.6894 27.431 8.6059-3.2272 3.7651 11.833-6.4544 6.9923 6.9923 3.7651 2.6894-1.6136 5.3787-4.303-3.2272-14.523 8.0681-1.0757 1.0757-16.136 18.288-1.6136 10.757-19.363 12.909-4.8408-1.0757-13.447 6.4544-10.757h-17.75l-3.7651 2.1515-15.598-26.894-8.6059-0.53787-15.06-20.977z" id="path220"/>
    <path d="m243.12 645.44h5.9166l11.295 8.0681 24.204 0.53787 5.9166-18.288-9.1438-24.204-6.4544 1.6136-19.363-13.447-5.9166-4.8408-3.2272 2.1515-2.1515 14.523-12.909 2.6894-15.598 10.757" id="path222"/>
    <path d="m279.15 654.05-3.7651 13.985 7.5302 5.9166 8.6059-2.6894 0.53787 13.447 5.3787-2.1515 7.5302-6.4544v-10.757l17.75-2.6894-10.757-32.81 18.288-0.53787-5.3787-33.886-15.06-3.2272-13.447-10.757-22.053 2.1515 3.2272 13.447 3.7651 14.523" id="path224"/>
    <path d="m277.54 669.65-5.9166 13.985-7.5302 54.863" id="path226"/>
    <path d="m316.81 730.43 33.886-4.303 13.985 4.303 8.6059-6.4544-4.303-19.363-12.909-24.742-20.977-19.363-13.447 1.6136" id="path228"/>
    <path d="m371.67 723.44 17.212 12.909-6.9923 49.484 45.719-18.825 2.1515-32.81 19.363-24.742 10.757-2.6894-6.9923-6.4544 4.303-29.045-10.22-1.0757-8.6059 6.4544-17.75-18.288-4.303 5.3787-2.6894-3.2272-33.348 11.295-11.833 34.962" id="path230"/>
    <path d="m429.22 736.35 77.991 44.643 0.53787-24.204 16.136-15.06v-30.659l11.295-1.6136-1.6136-17.212-43.03-19.901-8.0681 3.2272-26.894-4.303" id="path232"/>
    <path d="m522.81 686.86 10.22-11.833 12.371 1.6136 17.212 8.6059v-20.977l-6.9923-10.757 14.523-13.985 6.9923-36.575-32.81-15.598-10.22 6.4544-6.9923-22.591-10.757 2.1515-2.1515 3.2272-36.575-17.212-18.288 0.53787-51.098 22.591-24.742 39.265 31.734 40.34" id="path234"/>
    <path d="m457.73 560.46-7.5302-50.56 8.0681-50.022-3.7651-18.288 61.855-100.58 10.757 1.0757 6.9923 4.8408-6.9923 50.022 18.288 19.363 1.6136 66.158-29.583 3.7651-67.772 25.28" id="path236"/>
    <path d="m527.65 571.76 10.22-35.499 19.901-30.121 6.9923 1.0757 1.6136-9.1438-19.901-15.598" id="path238"/>
    <path d="m449.66 510.44-27.431-11.833 6.9923-21.515-8.0681-30.659-10.22 2.1515-18.288-10.22 9.1438-20.977-2.1515-14.523-19.363-4.8408-5.3787 1.6136-16.674-6.4544-2.6894-10.757-8.0681-5.9166 19.901-16.136 15.598 2.1515 33.348-7.5302 3.7651 1.6136 26.356-8.0681 16.674-11.295 18.825 2.1515 21.515-8.0681 12.909 10.22" id="path240"/>
    <path d="m565.93 501.29 6.846-0.76066 38.794-15.213 52.486 0.76067-23.581-29.666 0.76066-14.453-10.649-2.282-3.0426-11.41 4.564-44.119-4.564-7.6066-3.8033 3.8033-28.145-22.059 5.3246-13.692h-11.41l-15.974-12.171-12.171 7.6066-28.905 7.6066" id="path242"/>
    <path d="m640.48 445 12.171 4.564 19.017-0.76067v-25.102l8.3673-6.0853-1.5213-15.974 4.564-1.5213-2.282-68.46-19.017-6.0853-18.256 6.0853-5.3246 6.846-19.017-6.0853-18.256 12.931" id="path244"/>
    <path d="m429.78 352.2-1.5213-5.3246-9.8886-2.282 4.564-68.46-10.649-33.469-16.735-23.581-11.41-3.8033-4.564 15.213 13.692 14.453 6.846 10.649-2.282 15.213-27.384-0.76067-10.649 21.299-12.931 6.846 0.76067 9.128-25.102 19.777 9.8886 14.453 15.213 36.512" id="path246"/>
    <path d="m383.37 214.52 3.0427-19.777 12.171-15.213-1.5213-12.171-45.64-14.453v17.495l-11.41 16.735-1.5213 15.213-3.0427 6.846-31.948 5.3246-6.0853 5.3246 14.453 15.213 1.5213 8.3673 3.8033 4.564 0.76067 15.213 4.564 3.0426 15.974-20.538 3.0426-14.453 15.974 6.0853 14.453-8.3673 7.6066 1.5213" id="path248"/>
    <path d="m181.8 110.31-36.512 3.8033-39.555-5.3246l-28.145-10.649-6.846-20.538 42.597-53.246 10.649 1.5213-2.282-14.453 25.102-11.41 9.128 6.0853 21.299 38.794 33.469 1.5213 2.282 38.033-12.171 15.213v11.41z" id="path250"/>
    <path d="m183.32 110.31-9.8886 12.931 3.8033 63.896 34.23-2.282 21.299-32.709-17.495-15.213-10.649-26.623h-4.564" id="path252"/>
    <path d="m205.38 112.59 82.152-46.401 5.3246 17.495 36.512 9.128-0.76067 25.863-10.649 3.8033-2.282-11.41-12.931-5.3246-17.495 18.256-12.931 11.41-3.8033-4.564-18.256 6.0853-5.3246-6.0853-21.299 12.931" id="path254"/>
    <path d="m352.19 152.91-6.846-46.401-17.495 11.41" id="path256"/>
    <path d="m318.72 122.48v19.017l-21.299 1.5213-10.649 14.453-0.76067 25.863 6.846 9.8886 17.495 7.6066 27.384 1.5213" id="path258"/>
    <path d="m232 151.39 31.187 8.3673 1.5213 34.23 28.145-2.282" id="path260"/>
    <path d="m266.99 193.98 2.282 14.453-3.8033 23.581 20.538 6.0853 12.171-19.777" id="path262"/>
    <path d="m209.94 184.85 1.5213 22.059 12.171 8.3673-2.282 10.649 11.41-6.846 8.3673-15.213v-16.735l9.128-7.6066-6.0853-6.0853 12.171-8.3673-2.282-9.128" id="path264"/>
    <path d="m177.23 186.38-4.564 9.128-6.0853 15.974-1.5213 7.6066-17.495 6.846-4.564 12.931 14.453-2.282 15.213 22.059 23.581-6.846 12.931 0.76066 0.76066-15.974 12.171-11.41" id="path266"/>
    <path d="m231.24 218.32 14.453 5.3246h21.299" id="path268"/>
    <path d="m209.18 252.55 41.837 10.649 7.6066-1.5213 6.846-31.187" id="path270"/>
    <path d="m257.1 261.68 5.3246 12.171 15.974 4.564-4.564-9.8886-5.3246-3.0427 15.974-12.931-1.5213-14.453" id="path272"/>
    <path d="m274.6 269.29 9.128-3.0427 19.017-2.282 0.76067 15.974 15.974-1.5213 3.8033-12.931" id="path274"/>
    <path d="m371.2 270.81-15.974 3.0426-1.5213 13.692-9.128 2.282-28.905-10.649" id="path276"/>
    <path d="m321.76 326.34-3.0427-44.879" id="path278"/>
    <path d="m275.36 277.66 16.735 9.128 13.692 20.538-3.0427 12.931 15.974 7.6066 5.3246-2.282" id="path280"/>
    <path d="m210.7 252.55 1.5213 19.777 9.128 19.777 7.6066 4.564 15.974-12.931 7.6066 5.3246 15.213-6.846 4.564-6.846" id="path282"/>
    <path d="m185.6 254.08 5.3246 14.453 9.128 3.8033 0.76066 13.692 12.171 20.538 7.6066 2.282-3.0427 20.538-7.6066 1.5213 9.128 24.341 3.0427 7.6066 10.649 9.128 6.4656-8.7476h7.6066l-2.6623-7.987 15.974-4.564 5.705 5.705 4.564-12.171 1.9017-18.256-7.6066-4.9443 3.0426-6.846-3.0426-4.9443-10.649-5.3246-0.38033 4.564-5.3246-2.6623 4.1836-11.03-0.76066-6.0853" id="path284"/>
    <path d="m268.89 346.12 3.423 9.8886 5.705 3.0427 2.282-15.213 5.705-12.931 16.735-11.41" id="path286"/>
    <path d="m135.02 243.05-9.5083-7.2263-16.735-27.384-11.79-45.64-6.846 1.141 0.76066 20.158-13.312 2.6623 3.8033 10.269-7.2263 22.82 6.4656 6.0853-3.8033 9.128v29.666l3.423 9.128 18.636-5.3246 5.3247-11.41z" id="path288"/>
    <path d="m135.54 243.12 8.6059-5.9166" id="path290"/>
    <path d="m96.817 267.32 14.523 11.833 3.2272 12.909 29.045 30.121 2.6894 43.568 19.901-13.447 1.0757-12.909 4.303-10.22-5.3787-10.757 9.6817-25.28 4.8408-4.303-8.0681-21.515 0.53787-10.22" id="path292"/>
    <path d="m167.28 341.01 6.4544 14.523 15.06 8.6059 9.1438 2.6894 2.6894 20.977 5.3787 2.6894 10.22 8.6059 2.1515-10.22 10.22-5.3787 4.303-12.371" id="path294"/>
    <path d="m80.143 273.78 2.6894 8.6059-8.6059 8.0681 7.5302 8.0681-19.901 5.9166 1.0757 5.3787-8.6059 2.1515 13.985 25.818-7.5302 19.363 16.674 34.962-2.1515 12.909 19.363-9.1438h22.591l3.2272-16.136 6.9923 0.53787 6.9923 2.1515 3.7651-3.7651 8.0681-10.757v-3.2272" id="path296"/>
    <path d="m54.325 311.97-12.371-17.75-20.439 11.295-7.5302-5.3787-10.22 8.0681-2.6894 34.424 19.901 39.265l8.0681 7.5302 21.515-10.22 6.9923 15.06 16.136 10.22 2.6894 0.53787" id="path298"/>
    <path d="m27.969 387.8-9.1438 9.1438-18.288 3.2272 1.0757 18.825 9.1438 13.985 5.3787-0.53787 10.22 10.757 12.909-1.0757 13.985-7.5302 13.985-1.0758 2.1515-6.9923-6.9923-12.371 11.295 1.0757 5.3787-4.8408-4.8408-6.4544" id="path300"/>
    <path d="m38.189 441.59 0.53787 14.523 7.5302 2.1515 5.9166 0.53787 30.121-9.6817 2.6894 1.6136 7.5302 15.06 2.1515 15.598 4.8408 10.22-0.53787 10.757 19.901 0.53787 33.886-3.7651 3.7651-3.7651 10.757-5.9166 4.303 1.6136-0.53787-8.0681 5.3787-5.3787 2.6894-16.674 6.4544-7.5302 3.2272-13.985-37.113 26.356-13.985-5.3787-3.2272-11.833-9.1438 1.0757-0.53787 3.2272-19.363-11.295 3.2272 15.06-11.833-4.303-6.9923-8.0681-5.9166 2.6894-5.3787-6.9923-11.295-6.9923" id="path302"/>
    <path d="m113.49 394.8 6.4544 23.666-1.0757 16.136 4.303 9.6817 11.833 4.303 3.7651 3.2272 1.0757 9.6817" id="path304"/>
    <path d="m145.76 367.9 24.204 20.439 15.06 5.3787-11.833 7.5302 4.303 6.4544 9.6817-2.6894-1.0758 15.598 6.9923 11.295-4.303 8.6059" id="path306"/>
    <path d="m44.105 457.73-4.303 8.6059-11.295 10.757 21.515 5.3787-3.7651 12.371 18.288 5.9166 11.833-6.4544 3.2272-4.303 9.1438 3.7651 10.757-3.2272" id="path308"/>
    <path d="m47.87 495.38-12.909 8.0681 1.0757 22.591-6.4544-1.6136 6.4544 11.295 6.9923 6.4544h16.674l2.6894-5.3787h8.6059l9.1438-0.53787-2.6894-6.4544 3.7651-4.303 6.4544 2.1515 30.121-25.28" id="path310"/>
    <path d="m68.847 536.26v12.909l8.6059 1.6136 8.0681 19.363 8.6059-6.9923 44.105 1.6136 14.523-4.8408 9.6817-16.136 8.6059-4.8408-0.53787-13.447-9.6817-11.295 1.0757-5.3787-10.757-9.6817" id="path312"/>
    <path d="m152.22 560.46 10.757 13.447 5.9166-2.6894-2.1515 11.833" id="path314"/>
    <path d="m168.35 571.22 4.303-1.0757 4.303 5.3787 8.0681 4.8408 5.9166-3.2272 4.8408-7.5302 7.5302 3.2272 7.5302-1.0757 13.447-27.969-3.7651-11.833-0.53787-11.833 7.5302-8.6059 1.0757-5.9166-4.8408 1.6136-1.0757-0.80681 0.26893-3.7651-14.791-5.3787-34.424 20.17-9.6817-8.0681-2.4204-0.26893" id="path316"/>
    <path d="m210.31 572.56c1.6136-0.26894 11.564-2.1515 11.564-2.1515l8.337 10.757v5.3787l13.985-3.7651-4.303-19.901h-1.6136l-1.3447-11.026-5.1098-3.2272-3.2272-26.625 3.4962-11.026 5.6476-7.2612-6.1855-2.6894-2.6894 4.8408" id="path318"/>
    <path d="m244.73 582.78 5.1098 12.102" id="path320"/>
    <path d="m178.84 464.45 25.818 1.3447 7.7991 8.0681 14.523 5.1098-4.5719-6.1855-1.3447-10.488 5.6476-0.53787 1.8825 2.6894 2.1515-1.8826 1.0757-4.303 3.7651 1.0757 4.5719 2.1515-0.80681-6.7234 13.178-2.4204 5.9166 4.8408 1.8826 9.9506-4.5719 10.757-5.1098 6.1855-2.9583 10.488-10.22 9.4127" id="path322"/>
    <path d="m277.81 359.03-8.8749 13.716-14.523 5.6476-15.867 15.598-7.7991 8.8749-9.4127 17.75-2.1515 8.337 2.9583 10.22 8.0681 13.178 5.1098 2.6894h4.5719" id="path324"/>
    <path d="m226.44 445.09 10.757-2.6894 11.026-5.6476 22.053-2.4204 6.4544 4.034 0.26893 18.825-17.481 4.8408" id="path326"/>
    <path d="m239.89 563.15 3.7651-22.591 20.708-36.575 11.026-22.322 1.6136-24.742" id="path328"/>
    <path d="m275.93 463.64 58.897-1.0758-12.371-13.447-6.9923-8.0681-4.8408-1.6136 1.8825-38.458-9.6817-0.53787-11.026 7.2613-6.1855 7.5302-9.4127 22.591" id="path330"/>
    <path d="m346.93 377.32-12.102 12.909-9.9506 9.6817-13.178 0.80681" id="path332"/>
    <path d="m296.1 581.17-1.6136-17.481-0.53787-6.7234 2.9583-10.757 0.26894-8.337-1.6136-6.7234 14.523-6.9923 1.6136-5.9166 3.4962-17.75-40.071-18.557" id="path334"/>
    <path d="m314.92 500.76 61.048 26.356-0.8068-3.7651 3.2272-3.2272 5.6476-17.212 2.1515-12.909-8.337-3.2272-33.617-1.3447 0.80681-8.8749-4.303-1.3447 0.53787-4.8408-5.6476-2.4204-1.8826-5.1098" id="path336"/>
    <path d="m296.64 581.98 10.22-0.8068-1.6136-28.776 10.757-1.8826 5.3787 9.4127 25.011 9.6817 22.591 5.9166-2.1515-25.818 2.4204-2.6894 6.4544-19.632" id="path338"/>
    <path d="m367.63 561.54 15.06 8.8749 17.212 1.6136 9.6817 9.4127" id="path340"/>
    <path d="m184.76 393.72 5.3787 4.034 7.5302-2.4204-2.1515-4.5719 9.1438 1.0757 1.8825-1.8826" id="path342"/>
    <path d="m237.47 395.6 6.4544 5.1098-1.8826 2.9583 2.6894 1.0757 2.1515 5.3787 10.22 3.2272 3.7651 1.8826 11.295-1.6136 7.2612 8.6059 3.2272 0.53787" id="path344"/>
    <path d="m385.65 489.46 39.802 10.757" id="path346"/>
  </g>
  
  
  
  
  
  
  
  
  
  
  
  
  
  
  
  
  
  
  
  
  
  
  
  
  
  
  
  
  
  
  
  
  
  
  
  
  
  
  
  
  
  
  
  
  
  
  
  
  
  
  
  
  
  
  
  
  
  
  
  
  
  
  
  
  
  
  
  
  
  
  
  
  
  
  
  
  
  
  
  
  
  
  
  
  
  
  
  
  
  
  
  
  
  
  
  
  
  
  
  
  
  
  
  
  
  
  
  
  
  
  
  
  
  
  
  
  
  
  
</svg>